<?xml version="1.0" encoding="UTF-8"?>
<svg version="1.1" viewBox="0 0 1600 640" width="1280" height="1280" xmlns="http://www.w3.org/2000/svg">
<path transform="translate(316 39.7)" d="m0 0c0.842 0.00562 1.68 0.0112 2.55 0.017 0.886-0.0019 1.77-0.0038 2.69-0.00575 2.94-0.00371 5.88 0.00701 8.82 0.0182 2.03 0.00119 4.07 0.00165 6.1 0.00139 4.27 0.00157 8.54 0.00986 12.8 0.0233 5.48 0.017 11 0.0208 16.5 0.0201 4.2 2.71e-4 8.41 0.00575 12.6 0.013 2.02 0.00319 4.05 0.00516 6.07 0.00589 2.82 0.00216 5.64 0.0109 8.46 0.0216 0.844-4.53e-4 1.69-9.06e-4 2.56-0.00137 5.76 0.0322 5.76 0.0322 6.88 1.15 0.0988 2.43 0.132 4.84 0.123 7.28 0.00115 0.774 0.00231 1.55 0.0035 2.35 0.00267 2.63-0.00186 5.26-0.00629 7.89 4.36e-4 1.89 0.00131 3.78 0.00259 5.67 0.00225 5.22-0.00178 10.4-0.00678 15.7-0.0043 5.62-0.00286 11.2-0.0021 16.9 5.26e-4 9.74-0.00262 19.5-0.00824 29.2-0.00811 14.1-0.0107 28.2-0.012 42.3-0.00219 22.9-0.00884 45.7-0.0183 68.6-0.00918 22.2-0.0163 44.4-0.0205 66.6-1.32e-4 0.684-2.63e-4 1.37-3.99e-4 2.07-0.00132 6.87-0.00259 13.7-0.00384 20.6-0.0104 57.6-0.0281 115-0.0507 173-11.8 0.0231-23.7 0.0409-35.5 0.0518-5.5 0.00523-11 0.0123-16.5 0.0236-5.3 0.0108-10.6 0.0168-15.9 0.0194-2.03 0.00185-4.06 0.00548-6.08 0.0109-2.83 0.00721-5.66 0.00826-8.49 0.0078-0.847 0.0036-1.69 0.00719-2.57 0.0109-5.79-0.0104-5.79-0.0104-6.9-1.12-0.0878-2.15-0.107-4.29-0.0977-6.44 0.00322-1.31 0.00645-2.61 0.00977-3.96 0.00836-1.39 0.0168-2.78 0.0254-4.17 0.00501-1.39 0.00958-2.79 0.0137-4.18 0.0118-3.42 0.0283-6.84 0.0488-10.3-1.13 0.789-2.25 1.58-3.37 2.38-0.626 0.441-1.25 0.882-1.9 1.34-2.12 1.58-3.89 3.39-5.73 5.29-1.98 1.69-3.98 3.35-6 5-0.825 0.722-1.65 1.44-2.5 2.19-2.5 1.81-2.5 1.81-5.75 2.88-1.36 0.464-1.36 0.464-2.75 0.938-0.33 0.99-0.66 1.98-1 3-2.24 1.29-4.39 2.39-6.75 3.44-1.02 0.461-1.02 0.461-2.06 0.931-15.1 6.67-30.8 9.18-47.1 10.9-0.871 0.0923-1.74 0.185-2.64 0.28-6.18 0.594-6.18 0.594-8.42-0.53-2.16-0.161-4.33-0.278-6.5-0.375-21.7-1.28-39.3-7.62-58.5-17.6-0.66-0.33-1.32-0.66-2-1v-2c-0.889-0.244-1.78-0.487-2.7-0.738-3.55-1.36-5.44-2.84-8.18-5.45-2.94-2.76-5.88-5.45-9-8-9.63-8.42-17.4-19-24.1-29.8-0.454-0.724-0.908-1.45-1.38-2.2-1.7-2.82-2.62-4.45-2.62-7.8h-2c-0.315-0.822-0.629-1.64-0.953-2.49-0.428-1.12-0.856-2.23-1.3-3.38-0.458-1.2-0.915-2.4-1.39-3.64-0.78-2-1.58-3.98-2.45-5.95-13.2-30.1-13.2-73.2-1.67-104 0.248-0.636 0.496-1.27 0.752-1.93 0.411-1.07 0.411-1.07 0.83-2.16 9.31-23.9 9.31-23.9 13.2-25.8 1.02-1.99 2.01-3.99 3-6 2.36-4.07 4.62-7.72 8-11 1.07-1.24 2.13-2.5 3.19-3.75 3.09-3.56 6.39-6.63 9.98-9.67 1.98-1.66 1.98-1.66 4.2-4.02 7.9-7.71 16.7-15.1 27.6-17.6v-2c8.79-3.49 17.3-6.58 26.6-8.46 2.32-0.308 2.32-0.308 3.38-1.54 20.6-3.23 45-4.99 65 2 1.77 0.47 3.54 0.928 5.31 1.38 15 4.1 29 12.5 40.7 22.6 2.62 2.13 5.19 4.13 8 6-0.33-0.66-0.66-1.32-1-2-0.1-2.7-0.139-5.38-0.134-8.09-0.00227-0.846-0.00453-1.69-0.00687-2.56-0.00636-2.85-0.00551-5.7-0.00469-8.55-0.00299-2.04-0.00639-4.07-0.0102-6.11-0.00886-5.54-0.0112-11.1-0.0118-16.6-9.48e-4 -4.62-0.00462-9.24-0.00817-13.9-0.00815-10.9-0.0106-21.8-0.00987-32.7 6.01e-4 -11.3-0.00996-22.5-0.0257-33.8-0.0131-9.65-0.0184-19.3-0.0178-29 2.56e-4 -5.77-0.00263-11.5-0.0132-17.3-0.00964-5.42-0.00979-10.8-0.00248-16.3 0.00105-2-0.00135-3.99-0.00736-5.99-0.00765-2.71-0.00312-5.43 0.00463-8.14-0.00514-0.798-0.0103-1.6-0.0156-2.42 0.044-6.93 1.42-7.89 8.28-7.93zm-112 273c-1.04 0.841-2.08 1.67-3.12 2.5-2.62 2.28-3.55 3.44-4.88 6.5-0.463 0.454-0.926 0.908-1.4 1.38-10.1 10.2-12.9 26.7-12.8 40.4 0.276 18 5.67 32.9 18.2 46.2 14.3 13.3 33 17.4 52.1 17.2 4.86-0.192 9.27-0.849 13.9-2.16 0.732-0.195 1.46-0.389 2.22-0.59 6.29-1.87 12.4-4.7 17.8-8.41 0.495-1.49 0.495-1.49 1-3 0.722-0.248 1.44-0.495 2.19-0.75 3.97-1.76 6.37-4.7 8.81-8.25v-2c0.99-0.33 1.98-0.66 3-1 11.1-17.6 10.7-40.3 7-60-1.66-6.65-5.3-12.3-9-18-0.644-1.04-0.644-1.04-1.3-2.1-7.88-11.7-22.2-19.5-35.7-22.9-19.7-3.7-43.8-0.148-58 15zm-118 14 1 3zm224 24v5h1v-5h-1zm0 21 1 3z" fill="#FCFDFF"/>
<path transform="translate(1020,226)" d="m0 0c0.33 1.65 0.66 3.3 1 5h-2c-0.22 0.828-0.441 1.66-0.668 2.51-1.64 4.3-3.98 7.65-6.64 11.4-0.956 1.35-1.91 2.7-2.86 4.05-0.469 0.662-0.937 1.32-1.42 2.01-1.9 2.79-3.62 5.68-5.31 8.6-0.359 0.483-0.719 0.966-1.09 1.46h-2c-0.268 0.715-0.536 1.43-0.812 2.17-1.2 2.87-2.6 5.47-4.19 8.14-0.516 0.883-1.03 1.77-1.56 2.68-0.712 0.996-0.712 0.996-1.44 2.01h-2c-0.383 1.33-0.383 1.33-0.773 2.68-1.24 3.36-2.66 5.56-4.85 8.38-3.99 5.29-7.37 10.8-10.7 16.5-0.824 1.22-0.824 1.22-1.66 2.46h-2c-0.278 0.745-0.557 1.49-0.844 2.26-1.04 2.47-2.14 4.42-3.66 6.62-0.791 1.16-0.791 1.16-1.6 2.34-0.628 0.918-1.26 1.84-1.9 2.78-1.65 2.45-3.3 4.91-4.94 7.38-0.435 0.651-0.87 1.3-1.32 1.97-2.47 3.71-4.88 7.44-7.24 11.2-3.08 4.89-6.42 9.55-9.8 14.2-4.35 6.04-8.35 12.3-12.2 18.7-1.13 1.88-2.32 3.71-3.53 5.54h-2c-0.206 0.804-0.413 1.61-0.625 2.44-1.78 4.62-4.24 8.72-7.38 12.6h-2c-0.268 0.726-0.536 1.45-0.812 2.2-1.17 2.77-2.53 5.11-4.19 7.61-0.516 0.79-1.03 1.58-1.56 2.39-0.474 0.592-0.949 1.18-1.44 1.79h-2c-0.257 0.709-0.513 1.42-0.777 2.15-1.32 3.08-2.94 5.68-4.79 8.48-1.87 2.85-3.36 5.14-4.44 8.38h121v2h2c0.12 23.4-0.0503 46.7-1 70-14.3 1.1-28.6 1.14-43 1.11-2.58-2.83e-4 -5.17-1.23e-4 -7.75 4.43e-4 -5.53 5.2e-4 -11.1-0.00258-16.6-0.00824-7.99-0.00818-16-0.0107-24-0.012-13-0.00218-25.9-0.00881-38.9-0.0183-12.6-0.0092-25.2-0.0163-37.8-0.0205-0.778-2.63e-4 -1.56-5.25e-4 -2.36-7.96e-4 -3.9-0.00131-7.81-0.00257-11.7-0.00381-32.3-0.0103-64.6-0.0279-96.9-0.0503-0.563-1.89-0.563-1.89-1-4 1-1.79 1-1.79 2.56-3.62 3.18-3.93 5.67-8.06 8.14-12.5 0.428-0.629 0.856-1.26 1.3-1.91h2c0.267-0.733 0.534-1.47 0.809-2.22 1.17-2.74 2.5-4.82 4.25-7.21 2.95-4.11 5.73-8.29 8.44-12.6 3.15-4.96 6.43-9.8 9.83-14.6 2.37-3.42 4.56-6.95 6.77-10.5 2.87-4.45 5.93-8.77 8.98-13.1 1.89-2.67 1.89-2.67 2.99-5.04 0.926-1.81 0.926-1.81 2.32-3.18 2.27-2.3 3.71-4.92 5.36-7.69 3.02-5 6.19-9.82 9.58-14.6 4.68-6.47 4.68-6.47 8.67-13.4h2c0.371-1.33 0.371-1.33 0.75-2.69 1.33-3.52 2.84-5.44 5.25-8.31 2.06-2.96 4.02-5.99 6-9 1.29-1.94 2.58-3.88 3.88-5.81 2.06-3.09 4.12-6.18 6.17-9.27 3.12-4.7 6.26-9.38 9.52-14 3.66-5.2 7.06-10.6 10.4-15.9 0.5-0.77 1-1.54 1.52-2.33 0.449-0.695 0.897-1.39 1.36-2.11 0.389-0.597 0.779-1.19 1.18-1.81 1.19-2.04 1.19-2.04 1.95-5.75-36.6-0.33-73.3-0.66-111-1-1.4-2.8-1.13-5.12-1.15-8.25-0.00638-1.31-0.0128-2.63-0.0193-3.98-0.00153-1.44-0.00264-2.88-0.00337-4.32-0.00321-1.47-0.00658-2.94-0.0101-4.42-0.00599-3.09-0.00784-6.17-0.00725-9.26 1.02e-4 -3.96-0.0136-7.92-0.0308-11.9-0.0111-3.04-0.0131-6.08-0.0126-9.12-0.00118-1.46-0.00562-2.92-0.0133-4.38-0.00976-2.04-0.00567-4.08-8.95e-4 -6.12-0.00143-1.16-0.00285-2.32-0.00432-3.52 0.247-2.73 0.247-2.73 2.25-4.73 1.89-0.247 1.89-0.247 4.23-0.243 0.893-0.00337 1.79-0.00673 2.71-0.0102 1.48 0.00976 1.48 0.00976 2.99 0.0197 1.04-1e-3 2.09-0.00201 3.16-0.00304 3.52-9.58e-4 7.04 0.0124 10.6 0.0256 2.52 0.0022 5.03 0.00351 7.55 0.00398 5.43 0.00294 10.9 0.012 16.3 0.0263 7.85 0.0207 15.7 0.0294 23.6 0.0349 12.7 0.00926 25.5 0.0267 38.2 0.05 0.763 0.00139 1.53 0.00279 2.31 0.00422 1.15 0.00209 1.15 0.00209 2.32 0.00423 10.8 0.0198 21.7 0.0376 32.5 0.0531 0.762 0.00109 1.52 0.00218 2.31 0.00331 12.7 0.018 25.4 0.032 38.1 0.0439 7.84 0.0076 15.7 0.0194 23.5 0.0365 6 0.0129 12 0.021 18 0.0273 2.47 0.00348 4.93 0.0087 7.4 0.0158 3.36 0.00941 6.71 0.0127 10.1 0.0145 0.983 0.00428 1.97 0.00855 2.98 0.013 1.35-0.00114 1.35-0.00114 2.72-0.0023 1.16 0.0022 1.16 0.0022 2.35 0.00444 2.15-0.0534 2.15-0.0534 4.21-0.657 2.78-0.674 5.15-0.0322 7.92 0.535z" fill="#FCFDFF"/>
<path transform="translate(1056 226)" d="m0 0c0.806 2.17e-4 1.61 4.35e-4 2.44 6.59e-4 0.929-0.0046 1.86-0.0092 2.82-0.0139 1.54 0.00772 1.54 0.00772 3.11 0.0156 1.09-0.00241 2.17-0.00483 3.29-0.00732 3.67-0.00567 7.33 0.00305 11 0.0116 2.62-0.00107 5.24-0.00301 7.85-0.00575 6.39-0.00505 12.8 6.09e-4 19.2 0.00985 7.43 0.0104 14.9 0.0103 22.3 0.00983 13.3-5.01e-4 26.5 0.00867 39.8 0.0232 12.9 0.0141 25.7 0.0212 38.6 0.0205 0.793-4e-5 1.59-7.99e-5 2.4-1.21e-4 0.791-4.04e-5 1.58-8.07e-5 2.4-1.22e-4 14.6-6.89e-4 29.3 0.0052 43.9 0.0142 5.18 0.00302 10.4 0.00408 15.6 0.00453 6.97 7.52e-4 13.9 0.00708 20.9 0.0172 2.57 0.00293 5.13 0.00415 7.7 0.00357 3.49-4.88e-4 6.98 0.00513 10.5 0.0124 1.03-0.00155 2.06-0.0031 3.11-0.00469 0.929 0.00322 1.86 0.00645 2.82 0.00977 1.21 0.00106 1.21 0.00106 2.44 0.00213 1.95 0.126 1.95 0.126 3.95 1.13-1.53 4.4-3.88 8.06-6.5 11.9-0.906 1.34-1.81 2.68-2.72 4.02-0.694 1.02-0.694 1.02-1.4 2.07-2.14 3.17-4.26 6.35-6.38 9.54-0.829 1.24-1.66 2.49-2.49 3.73-1.71 2.56-3.41 5.13-5.12 7.7-3.64 5.48-7.28 11-11.1 16.3-3.01 4.25-5.79 8.62-8.56 13-2.23 3.47-4.62 6.83-7 10.2-1.8 2.61-3.5 5.27-5.18 7.96-3 4.77-6.25 9.28-9.59 13.8-2.58 3.6-4.92 7.33-7.27 11.1-1.63 2.55-3.33 5.02-5.08 7.48-3.26 4.6-6.31 9.31-9.34 14.1-3.03 4.75-6.13 9.45-9.28 14.1-0.66 0.99-1.32 1.98-2 3h-2c-0.186 0.784-0.371 1.57-0.562 2.38-2.03 5.13-5.21 9.18-8.44 13.6-5.15 7.31-10.2 14.7-14.9 22.2-1.67 2.64-3.38 5.11-5.36 7.54-1.94 2.01-1.94 2.01-1.74 4.22 0.622-0.00184 1.24-0.00369 1.88-0.00559 15.1-0.0441 30.2-0.0772 45.3-0.098 7.31-0.0103 14.6-0.0244 21.9-0.0473 6.37-0.0199 12.7-0.0328 19.1-0.0373 3.37-0.00261 6.75-0.00877 10.1-0.0233 3.76-0.0144 7.52-0.0165 11.3-0.0156 1.12-0.00719 2.25-0.0144 3.41-0.0218 1.02 0.00275 2.04 0.0055 3.09 0.00833 1.34-0.00277 1.34-0.00277 2.7-0.00559 2.14 0.246 2.14 0.246 4.14 2.25 0.247 2.76 0.247 2.76 0.243 6.33 0.0019 0.649 0.0038 1.3 0.00575 1.97 0.00371 2.15-7e-3 4.3-0.0182 6.45-0.00119 1.49-0.00164 2.98-0.00139 4.48-0.00157 3.13-0.00986 6.26-0.0233 9.39-0.017 4.01-0.0208 8.03-0.0201 12-2.72e-4 3.08-0.00576 6.16-0.013 9.25-0.00318 1.48-0.00515 2.96-0.00589 4.44-0.00217 2.07-0.0109 4.14-0.0216 6.2-0.00381 1.18-0.00762 2.36-0.0116 3.57-0.134 2.89-0.134 2.89-1.13 5.89-18.7 0.643-37.3 1.17-56 1v-2c-0.805 0.162-1.61 0.323-2.44 0.49-4.21 0.602-8.28 0.663-12.5 0.668-0.891 0.00494-1.78 0.00988-2.7 0.015-2.98 0.0153-5.96 0.0237-8.94 0.0321-2.14 0.00958-4.28 0.0196-6.42 0.03-5.8 0.027-11.6 0.048-17.4 0.068-6.07 0.0219-12.1 0.0493-18.2 0.0761-11.5 0.0499-23 0.0949-34.5 0.138-13.1 0.0494-26.2 0.104-39.2 0.16-26.9 0.114-53.8 0.221-80.7 0.323-0.495-1.48-0.495-1.48-1-3 1.23-2.29 2.49-4.36 3.94-6.5 0.612-0.928 0.612-0.928 1.24-1.87 3.25-4.88 6.67-9.63 10.2-14.3 1.45-2.05 2.59-4.03 3.63-6.3h2c0.402-1.07 0.402-1.07 0.812-2.17 1.2-2.87 2.6-5.47 4.19-8.14 0.516-0.883 1.03-1.77 1.56-2.68 0.474-0.664 0.949-1.33 1.44-2.01h2c0.402-1.07 0.402-1.07 0.812-2.17 1.2-2.87 2.6-5.47 4.19-8.14 0.516-0.883 1.03-1.77 1.56-2.68 0.474-0.664 0.949-1.33 1.44-2.01h2c0.348-1.01 0.348-1.01 0.703-2.05 1.63-3.71 3.77-6.87 6.05-10.2 0.678-1 0.678-1 1.37-2.03 1.29-1.91 2.59-3.82 3.88-5.72 3.56-5.29 7.06-10.6 10.5-16 5.24-8.18 10.6-16.2 16.2-24.2 2.63-3.8 5.23-7.62 7.78-11.5 1.19-1.79 2.38-3.58 3.58-5.37 0.709-1.06 1.42-2.12 2.15-3.21 0.654-0.975 1.31-1.95 1.98-2.95 1.17-1.79 2.31-3.61 3.38-5.47 1.45-2.33 1.45-2.33 2.89-3.74 1.63-1.66 2.72-3.3 3.92-5.3 2.49-4.08 5.16-8 7.89-11.9 11.3-15.2 11.3-15.2 18.8-32.4h-111c-1.4-2.8-1.13-5.12-1.15-8.25-0.00638-1.31-0.0128-2.63-0.0193-3.98-0.00153-1.44-0.00264-2.88-0.00337-4.32-0.00321-1.47-0.00658-2.94-0.0101-4.42-0.00599-3.09-0.00784-6.17-0.00725-9.26 1.02e-4 -3.96-0.0136-7.92-0.0308-11.9-0.0111-3.04-0.0131-6.08-0.0126-9.12-0.00118-1.46-0.00562-2.92-0.0133-4.38-0.00976-2.04-0.00567-4.08-8.95e-4 -6.12-0.00143-1.16-0.00285-2.32-0.00432-3.52 0.29-3.21 0.85-4.55 4.2-4.98zm109 72.2 1 2z" fill="#FBFCFE"/>
<path transform="translate(433 236)" d="m0 0c1.37 0.00214 1.37 0.00214 2.78 0.00432 1.04-0.00308 2.08-0.00615 3.14-0.00932 1.69 0.0108 1.69 0.0108 3.41 0.0218 1.72 6.87e-4 1.72 6.87e-4 3.48 0.00139 2.43 0.00302 4.86 0.0109 7.3 0.0233 3.74 0.0183 7.47 0.0205 11.2 0.0203 2.36 0.00492 4.71 0.0107 7.07 0.0176 1.69 0.00167 1.69 0.00167 3.41 0.00337 1.03 0.00638 2.07 0.0128 3.13 0.0193 1.37 0.00572 1.37 0.00572 2.77 0.0116 2.08 0.134 2.08 0.134 3.08 1.13 0.103 1.48 0.138 2.96 0.145 4.43 0.0069 0.958 0.0138 1.92 0.0209 2.9 0.00261 1.06 0.00523 2.12 0.00792 3.21 0.00669 1.11 0.0134 2.22 0.0203 3.37 0.0141 2.42 0.026 4.85 0.0359 7.27 0.0164 3.85 0.0396 7.71 0.0649 11.6 0.0708 11 0.13 21.9 0.182 32.9 0.0317 6.7 0.0734 13.4 0.12 20.1 0.0159 2.54 0.0283 5.08 0.0369 7.62 0.0494 14.3 0.467 28.4 2.37 42.6 0.145 1.1 0.29 2.19 0.439 3.32 3.11 21.8 18.4 42.5 35.5 55.6 21.6 15.8 46.9 20.6 73.3 17.4 18.1-2.97 38.7-12.8 50.3-27.5 1.46-1.82 1.46-1.82 3.38-3.7 6.67-6.79 11.4-15 15-23.7 0.274-0.659 0.547-1.32 0.829-2 4.19-10.7 5.74-20.8 5.7-32.3 0.00576-1.34 0.0128-2.68 0.0211-4.02 0.015-2.85 0.0209-5.71 0.0195-8.56-0.00205-4.51 0.0176-9.03 0.0402-13.5 0.0408-8.75 0.0595-17.5 0.0762-26.3 0.0224-11.2 0.0558-22.4 0.107-33.5 0.0199-4.49 0.0295-8.98 0.031-13.5 0.00208-2.11 0.00862-4.23 0.0172-6.34 0.0103-2.58 0.0134-5.16 0.0081-7.74 0.0102-1.69 0.0102-1.69 0.0207-3.42 0.00163-0.985 0.00327-1.97 0.00495-2.99 0.253-2.34 0.253-2.34 2.25-4.34 2.2-0.247 2.2-0.247 4.97-0.243 1.55-0.00461 1.55-0.00461 3.13-0.00932 1.12 0.00719 2.24 0.0144 3.4 0.0218 1.15 4.58e-4 2.29 9.16e-4 3.47 0.00139 2.43 0.00303 4.86 0.0109 7.28 0.0233 3.73 0.0182 7.45 0.0205 11.2 0.0203 2.35 0.00492 4.71 0.0107 7.06 0.0176 1.68 0.00167 1.68 0.00167 3.4 0.00337 1.03 0.00638 2.07 0.0128 3.13 0.0193 0.913 0.00381 1.83 0.00762 2.77 0.0116 2.2 0.134 2.2 0.134 4.2 1.13 0.0234 17.7 0.041 35.3 0.0518 53 0.00514 8.2 0.0122 16.4 0.0236 24.6 0.01 7.15 0.0164 14.3 0.0186 21.5 0.0013 3.78 0.00432 7.56 0.0116 11.3 0.00685 3.57 0.00887 7.14 0.00738 10.7 4.01e-4 1.92 0.00575 3.83 0.0113 5.75-0.0236 20.1-0.0236 20.1-3.12 28.2-0.364 1.4-0.71 2.81-1.04 4.21-2.56 10.7-5.93 20-11 29.8-0.499 1.02-0.998 2.04-1.51 3.09-4.47 8.72-10.2 17.4-16.5 24.9h-2c-0.34 0.804-0.34 0.804-0.688 1.62-5.43 9.83-15.6 16.6-24.3 23.4-0.797 0.65-1.59 1.3-2.41 1.97-10.6 8.24-23.4 13.9-36.1 18.2-1.44 0.487-2.87 0.994-4.28 1.56-4.99 1.99-9.81 3.11-15.1 3.92-0.739 0.121-1.48 0.242-2.24 0.367-19.2 3.06-38.7 3.01-57.9 0.00781-1.04-0.16-2.08-0.32-3.16-0.484-13.1-2.54-27.6-7.46-38.8-14.5-1.46-0.855-1.46-0.855-2.95-1.73-6.57-3.92-12.5-8.06-18.4-13-3.53-2.99-7.19-5.8-10.9-8.62-0.594-0.538-1.19-1.08-1.8-1.63v-2c-0.572-0.228-1.14-0.456-1.73-0.691-8.06-4.65-14-15.8-19.3-23.3-0.608-0.873-1.22-1.75-1.84-2.64-4.73-7.08-7.97-14.5-11.2-22.4-0.735-1.69-0.735-1.69-1.48-3.42-9.51-22.4-10.3-46.9-10.1-71 0.0245-3.59 0.0209-7.17 0.0213-10.8 0.00456-5.98 0.0278-12 0.0645-17.9 0.0422-6.91 0.0593-13.8 0.0626-20.7 0.00359-7.41 0.0224-14.8 0.0471-22.2 0.00622-2.12 0.00986-4.24 0.013-6.37 0.00697-3.93 0.0313-7.85 0.0579-11.8 6.65e-4 -1.17 0.00133-2.34 0.00201-3.55 0.00998-1.06 0.02-2.12 0.0302-3.22 0.00465-0.925 0.0093-1.85 0.0141-2.8 0.368-3.13 1.34-4.1 4.47-4.46z" fill="#00FD71"/>
<path transform="translate(1363 430)" d="m0 0c1.96 8.17e-4 1.96 8.17e-4 3.97 0.00165 0.728-0.00241 1.46-0.00483 2.21-0.00732 2.45-0.00566 4.9 0.00304 7.35 0.0116 1.75-0.00107 3.5-0.00301 5.26-0.00575 4.77-0.00486 9.54 0.00282 14.3 0.013 4.98 0.00876 9.96 0.00702 14.9 0.00664 8.36 9.37e-4 16.7 0.00963 25.1 0.0233 9.68 0.0157 19.4 0.021 29.1 0.0203 9.3-6.09e-4 18.6 0.00449 27.9 0.0128 3.97 0.00354 7.93 0.00536 11.9 0.00589 4.66 1e-3 9.33 0.00708 14 0.0172 1.72 0.00293 3.43 0.00415 5.15 0.00357 2.33-4.87e-4 4.67 0.00513 7 0.0124 1.31 0.00168 2.62 0.00335 3.97 0.00508 2.9 0.129 2.9 0.129 3.9 1.13v74h-180c-1.46-2.91-1.14-5.46-1.15-8.71-0.00336-0.69-0.00672-1.38-0.0102-2.09-0.00952-2.28-0.0115-4.57-0.0125-6.85-0.00321-1.58-0.00658-3.17-0.0101-4.75-0.00599-3.32-0.00784-6.64-0.00725-9.97 1.02e-4 -4.26-0.0136-8.53-0.0308-12.8-0.0111-3.27-0.0131-6.54-0.0126-9.82-0.00118-1.57-0.00562-3.15-0.0133-4.72-0.00976-2.2-0.00694-4.39-8.95e-4 -6.59-0.00143-1.25-0.00285-2.5-0.00432-3.79 0.347-4.1 1.18-4.83 5.27-5.17z" fill="#00FE72"/>
<path transform="translate(563 180)" d="m0 0c1.85-0.00302 1.85-0.00302 3.74-0.0061 1.3 0.00459 2.6 0.00918 3.94 0.0139 0.995 0.00183 0.995 0.00183 2.01 0.00369 8.57 0.0185 17.1 0.144 25.7 0.559 1.24 0.0587 1.24 0.0587 2.51 0.119 5.55 0.313 5.55 0.313 6.68 1.44 0.123 1.56 0.178 3.13 0.205 4.7 0.0199 1.02 0.0399 2.03 0.0604 3.08 0.0167 1.12 0.0334 2.24 0.0507 3.39 0.0209 1.17 0.0417 2.33 0.0632 3.54 0.0668 3.87 0.125 7.73 0.183 11.6 0.0209 1.33 0.042 2.67 0.0632 4 0.592 37.6 1.01 75.1-0.626 113-40 1.19-40 1.19-57 1-1.32-2.64-1.13-4.62-1.13-7.58-0.00282-1.19-0.00564-2.37-0.00854-3.59 0.00202-1.31 0.00405-2.62 0.00613-3.96-0.00135-1.39-0.00313-2.77-0.00531-4.16-0.00457-3.77-0.00279-7.54 3.79e-4 -11.3 0.00253-3.94 1.85e-4 -7.88-0.00139-11.8-0.00182-6.62 5.83e-4 -13.2 0.00534-19.9 0.00544-7.66 0.00368-15.3-0.00183-23-0.00453-6.57-0.00518-13.1-0.00256-19.7 0.00156-3.93 0.00176-7.85-0.00154-11.8-0.00288-3.69-8.97e-4 -7.38 0.00489-11.1 0.00196-2.01-0.00102-4.01-0.00413-6.02 0.00282-1.19 0.00564-2.37 0.00854-3.59 3.77e-4 -1.04 7.54e-4 -2.07 0.00114-3.14 0.126-2.44 0.126-2.44 1.13-4.44 4.16-0.965 8.19-1.13 12.4-1.13z" fill="#00FD71"/>
<path transform="translate(485,237)" d="m0 0h1v117h-1v-117z" fill="#000100"/>
<path transform="translate(1540,431)" d="m0 0h1v74h-1v-74z" fill="#000100"/>
<path transform="translate(608,181)" d="m0 0h2v60h-1c-0.33-19.8-0.66-39.6-1-60z" fill="#000100"/>
<path transform="translate(609,293)" d="m0 0h1v33h-1v-33z" fill="#000100"/>
<path transform="translate(1013,468)" d="m0 0h1v31h-1v-31z" fill="#000100"/>
<path transform="translate(1313,471)" d="m0 0h1v16h-1v-16z" fill="#000100"/>
<path transform="translate(571,326)" d="m0 0h7v1h-7v-1z" fill="#000100"/>
<path transform="translate(1250,499)" d="m0 0h5v1h-5v-1z" fill="#000100"/>
<path transform="translate(1021,226)" d="m0 0c0.99 0.33 1.98 0.66 3 1-0.66 0.66-1.32 1.32-2 2-0.33-0.99-0.66-1.98-1-3z" fill="#000100"/>
<path transform="translate(1e3 225)" d="m0 0h5v1h-5v-1z" fill="#FCFDFF"/>
<path transform="translate(728,374)" d="m0 0 1 4z" fill="#000100"/>
<path transform="translate(212,507)" d="m0 0 2 1z" fill="#000100"/>
</svg>
